<?xml version="1.0" standalone="no"?>
<!DOCTYPE svg PUBLIC "-//W3C//DTD SVG 20010904//EN"
 "http://www.w3.org/TR/2001/REC-SVG-20010904/DTD/svg10.dtd">
<svg version="1.0" xmlns="http://www.w3.org/2000/svg"
 width="1000.000000pt" height="1000.000000pt" viewBox="0 0 1000.000000 1000.000000"
 preserveAspectRatio="xMidYMid meet">
<metadata>
Created by potrace 1.11, written by Peter Selinger 2001-2013
</metadata>
<g transform="translate(0.000000,1000.000000) scale(0.100000,-0.100000)"
fill="#000000" stroke="none">
<path d="M5848 9055 c-2 -2 -21 -5 -44 -7 -75 -9 -120 -44 -208 -163 -140
-188 -550 -754 -569 -785 -11 -17 -22 -30 -25 -30 -4 0 -149 196 -322 436
-173 240 -329 451 -347 470 -69 74 -195 97 -284 51 -39 -20 -212 -142 -417
-295 -99 -74 -127 -122 -127 -222 0 -88 9 -109 95 -225 32 -44 69 -95 82 -113
13 -18 28 -39 33 -45 6 -7 48 -64 93 -127 153 -211 424 -585 441 -606 9 -12
23 -32 31 -44 8 -12 34 -47 57 -79 41 -54 41 -57 26 -81 -13 -19 -237 -329
-409 -565 -335 -460 -533 -732 -564 -777 -22 -32 -47 -66 -54 -75 -8 -10 -77
-103 -152 -208 -75 -104 -160 -221 -188 -260 -86 -115 -390 -534 -406 -558
-16 -24 -333 -461 -409 -564 -25 -34 -56 -77 -69 -95 -13 -18 -53 -74 -90
-125 -37 -50 -103 -141 -147 -203 -44 -61 -89 -123 -101 -138 -20 -27 -301
-413 -499 -687 -60 -82 -132 -181 -160 -220 -28 -38 -80 -110 -116 -160 -35
-49 -67 -94 -72 -100 -4 -5 -22 -30 -41 -55 -18 -25 -54 -73 -79 -108 -26 -34
-47 -66 -47 -71 0 -5 -4 -11 -8 -13 -4 -1 -23 -25 -42 -53 -19 -27 -45 -61
-58 -76 l-23 -26 -208 -1 c-250 -1 -276 -6 -347 -77 -74 -74 -76 -86 -72 -445
3 -292 4 -307 25 -342 37 -63 74 -97 130 -118 54 -20 64 -20 4851 -20 l4797 1
48 23 c63 31 92 59 121 119 25 49 25 51 26 355 0 302 0 308 -23 357 -34 72
-98 124 -172 141 -11 3 -113 5 -227 5 l-207 0 -32 40 c-18 23 -43 56 -56 75
-12 19 -28 40 -33 47 -6 7 -48 64 -94 127 -45 63 -148 204 -227 314 -79 109
-182 251 -228 315 -46 64 -107 148 -136 186 -28 39 -249 342 -490 675 -241
333 -468 646 -504 695 -37 50 -73 100 -81 112 -16 23 -189 261 -202 278 -40
51 -78 106 -78 114 0 5 -4 11 -8 13 -7 2 -145 185 -192 255 -19 28 -179 248
-245 338 -29 39 -159 219 -291 400 -131 182 -242 335 -247 340 -4 6 -48 66
-98 135 -49 69 -95 132 -102 140 -7 8 -33 44 -57 80 -25 36 -47 67 -51 70 -6
6 -216 296 -266 367 l-32 46 22 31 c12 17 27 36 32 42 6 7 28 38 50 69 22 32
60 85 85 119 25 33 92 126 150 206 57 80 108 150 113 155 4 6 97 134 207 285
212 292 226 319 218 414 -8 98 -39 133 -253 289 -105 75 -197 144 -206 151
-49 40 -176 95 -191 81z m-643 -4790 c108 -148 205 -281 215 -295 10 -14 48
-65 84 -115 35 -49 78 -108 94 -130 17 -22 123 -168 237 -325 113 -157 215
-296 225 -310 10 -14 48 -65 84 -115 36 -49 72 -99 80 -110 229 -312 570 -784
577 -796 8 -16 -127 -17 -1801 -17 -996 0 -1810 2 -1810 3 0 2 26 39 58 83 31
44 91 126 132 183 41 57 79 109 83 114 12 15 507 694 582 800 60 85 414 571
455 625 16 22 195 268 236 325 7 11 42 58 76 105 35 47 90 122 122 168 33 45
63 81 67 80 5 -2 97 -124 204 -273z"/>
</g>
</svg>
